<?xml version="1.0" encoding="UTF-8" standalone="no"?>
<!-- Generated by graphviz version 2.38.0 (20140413.2041)
 -->

<!-- Title: G Pages: 1 -->

<svg
   xmlns:dc="http://purl.org/dc/elements/1.1/"
   xmlns:cc="http://creativecommons.org/ns#"
   xmlns:rdf="http://www.w3.org/1999/02/22-rdf-syntax-ns#"
   xmlns:svg="http://www.w3.org/2000/svg"
   xmlns="http://www.w3.org/2000/svg"
   xmlns:sodipodi="http://sodipodi.sourceforge.net/DTD/sodipodi-0.dtd"
   xmlns:inkscape="http://www.inkscape.org/namespaces/inkscape"
   width="609pt"
   height="410pt"
   viewBox="0 0 608.66167 410"
   id="svg2"
   version="1.1"
   inkscape:version="0.91 r13725"
   sodipodi:docname="call-graph.svg">
  <metadata
     id="metadata253">
    <rdf:RDF>
      <cc:Work
         rdf:about="">
        <dc:format>image/svg+xml</dc:format>
        <dc:type
           rdf:resource="http://purl.org/dc/dcmitype/StillImage" />
        <dc:title></dc:title>
      </cc:Work>
    </rdf:RDF>
  </metadata>
  <defs
     id="defs251" />
  <sodipodi:namedview
     pagecolor="#ffffff"
     bordercolor="#666666"
     borderopacity="1"
     objecttolerance="10"
     gridtolerance="10"
     guidetolerance="10"
     inkscape:pageopacity="0"
     inkscape:pageshadow="2"
     inkscape:window-width="661"
     inkscape:window-height="480"
     id="namedview249"
     showgrid="false"
     fit-margin-top="0"
     fit-margin-left="0"
     fit-margin-right="0"
     fit-margin-bottom="0"
     inkscape:zoom="0.42909091"
     inkscape:cx="213.4375"
     inkscape:cy="260.625"
     inkscape:window-x="0"
     inkscape:window-y="0"
     inkscape:window-maximized="0"
     inkscape:current-layer="graph0" />
  <g
     id="graph0"
     class="graph"
     transform="translate(-275.25,417.5)">
    <title
       id="title5">G</title>
    <g
       id="clust2"
       class="cluster">
      <title
         id="title10">clustermain0</title>
      <polygon
         points="883.5,-8 275.5,-8 275.5,-8 275.5,-417 883.5,-417 "
         id="polygon12"
         style="fill:none;stroke:#000000;stroke-dasharray:1, 5" />
      <text
         x="579.5"
         y="-401.79999"
         font-size="14.00"
         id="text14"
         style="font-size:14px;font-family:Times, serif;text-anchor:middle">main</text>
    </g>
    <!-- Legend -->
    <g
       id="node1"
       class="node"
       transform="matrix(0.58788047,0,0,0.58788047,285.04818,152.71833)">
      <title
         id="title17">Legend</title>
      <polygon
         points="266.5,-414 1.5,-414 1.5,-414 1.5,-431 266.5,-431 "
         id="polygon19"
         style="fill:none;stroke:#000000" />
      <text
         x="81.5"
         y="-418.79999"
         font-size="14.00"
         id="text21"
         style="font-size:14px;font-family:Times, serif;text-anchor:start">Code2flow Legend</text>
      <polygon
         points="266.5,-305 1.5,-305 1.5,-305 1.5,-414 266.5,-414 "
         id="polygon23"
         style="fill:none;stroke:#000000" />
      <polygon
         points="214.5,-391 3.5,-391 3.5,-391 3.5,-412 214.5,-412 "
         id="polygon25"
         style="fill:none;stroke:#000000" />
      <text
         x="63"
         y="-397.79999"
         font-size="14.00"
         id="text27"
         style="font-size:14px;font-family:Times, serif;text-anchor:start">Regular function</text>
      <polygon
         points="264.5,-391 214.5,-391 214.5,-391 214.5,-412 264.5,-412 "
         id="polygon29"
         style="fill:none;stroke:#000000" />
      <polygon
         points="214.5,-370 3.5,-370 3.5,-370 3.5,-391 214.5,-391 "
         id="polygon31"
         style="fill:none;stroke:#000000" />
      <text
         x="15"
         y="-376.79999"
         font-size="14.00"
         id="text33"
         style="font-size:14px;font-family:Times, serif;text-anchor:start">Trunk function (nothing calls this)</text>
      <polygon
         points="264.5,-370 214.5,-370 214.5,-370 214.5,-391 264.5,-391 "
         id="polygon35"
         style="fill:#ff7f50;stroke:none" />
      <polygon
         points="264.5,-370 214.5,-370 214.5,-370 214.5,-391 264.5,-391 "
         id="polygon37"
         style="fill:none;stroke:#000000" />
      <polygon
         points="214.5,-349 3.5,-349 3.5,-349 3.5,-370 214.5,-370 "
         id="polygon39"
         style="fill:none;stroke:#000000" />
      <text
         x="6.5"
         y="-355.79999"
         font-size="14.00"
         id="text41"
         style="font-size:14px;font-family:Times, serif;text-anchor:start">Leaf function (this calls nothing else)</text>
      <polygon
         points="264.5,-349 214.5,-349 214.5,-349 214.5,-370 264.5,-370 "
         id="polygon43"
         style="fill:#008000;stroke:none" />
      <polygon
         points="264.5,-349 214.5,-349 214.5,-349 214.5,-370 264.5,-370 "
         id="polygon45"
         style="fill:none;stroke:#000000" />
      <polygon
         points="214.5,-328 3.5,-328 3.5,-328 3.5,-349 214.5,-349 "
         id="polygon47"
         style="fill:none;stroke:#000000" />
      <text
         x="9"
         y="-334.79999"
         font-size="14.00"
         id="text49"
         style="font-size:14px;font-family:Times, serif;text-anchor:start">Function call which returns no value</text>
      <polygon
         points="264.5,-328 214.5,-328 214.5,-328 214.5,-349 264.5,-349 "
         id="polygon51"
         style="fill:none;stroke:#000000" />
      <text
         x="232"
         y="-334.79999"
         font-size="14.00"
         id="text53"
         style="font-size:14px;font-family:Times, serif;text-anchor:start">→</text>
      <polygon
         points="214.5,-307 3.5,-307 3.5,-307 3.5,-328 214.5,-328 "
         id="polygon55"
         style="fill:none;stroke:#000000" />
      <text
         x="19.5"
         y="-313.79999"
         font-size="14.00"
         id="text57"
         style="font-size:14px;font-family:Times, serif;text-anchor:start">Function call returns some value</text>
      <polygon
         points="264.5,-307 214.5,-307 214.5,-307 214.5,-328 264.5,-328 "
         id="polygon59"
         style="fill:none;stroke:#000000" />
      <text
         x="232"
         y="-313.79999"
         font-size="14.00"
         id="text61"
         style="font-size:14px;font-family:Times, serif;text-anchor:start;fill:#0000ff">→</text>
      <polygon
         points="265.5,-306 2.5,-306 2.5,-306 2.5,-413 265.5,-413 "
         id="polygon63"
         style="fill:none;stroke:#000000" />
      <polygon
         points="267,-304 0,-304 0,-304 0,-432 267,-432 "
         id="polygon65"
         style="fill:none;stroke:#000000" />
    </g>
    <!-- node51 -->
    <g
       id="node2"
       class="node">
      <title
         id="title68">node51</title>
      <path
         d="m 801,-386 c 0,0 -221,0 -221,0 -6,0 -12,6 -12,12 0,0 0,12 0,12 0,6 6,12 12,12 0,0 221,0 221,0 6,0 12,-6 12,-12 0,0 0,-12 0,-12 0,-6 -6,-12 -12,-12"
         id="path70"
         inkscape:connector-curvature="0"
         style="fill:#ff7f50;stroke:#000000" />
      <text
         x="690.5"
         y="-364.29999"
         font-size="14.00"
         id="text72"
         style="font-size:14px;font-family:Times, serif;text-anchor:middle">0: (main window frame (runs on import))</text>
    </g>
    <!-- node3 -->
    <g
       id="node3"
       class="node">
      <title
         id="title75">node3</title>
      <path
         d="m 863,-268 c 0,0 -107,0 -107,0 -6,0 -12,6 -12,12 0,0 0,12 0,12 0,6 6,12 12,12 0,0 107,0 107,0 6,0 12,-6 12,-12 0,0 0,-12 0,-12 0,-6 -6,-12 -12,-12"
         id="path77"
         inkscape:connector-curvature="0"
         style="fill:#ff7f50;stroke:#000000" />
      <text
         x="809.5"
         y="-246.3"
         font-size="14.00"
         id="text79"
         style="font-size:14px;font-family:Times, serif;text-anchor:middle">6: onAgeMinChange</text>
    </g>
    <!-- node19 -->
    <g
       id="node10"
       class="node">
      <title
         id="title82">node19</title>
      <path
         d="m 704,-196 c 0,0 -99,0 -99,0 -6,0 -12,6 -12,12 0,0 0,12 0,12 0,6 6,12 12,12 0,0 99,0 99,0 6,0 12,-6 12,-12 0,0 0,-12 0,-12 0,-6 -6,-12 -12,-12"
         id="path84"
         inkscape:connector-curvature="0"
         style="fill:none;stroke:#000000" />
      <text
         x="654.5"
         y="-174.3"
         font-size="14.00"
         id="text86"
         style="font-size:14px;font-family:Times, serif;text-anchor:middle">133: refreshCurrent</text>
    </g>
    <!-- node3&#45;&gt;node19 -->
    <g
       id="edge1"
       class="edge">
      <title
         id="title89">node3-&gt;node19</title>
      <path
         d="m 771.583,-231.876 c -21.096,9.527 -47.539,21.469 -69.956,31.593"
         id="path91"
         inkscape:connector-curvature="0"
         style="fill:none;stroke:#000000" />
      <polygon
         points="702.848,-196.994 702.848,-196.994 692.294,-196.068 699.967,-203.374 "
         id="polygon93"
         style="fill:#000000;stroke:#000000" />
    </g>
    <!-- node5 -->
    <g
       id="node4"
       class="node">
      <title
         id="title96">node5</title>
      <path
         d="m 713.5,-268 c 0,0 -118,0 -118,0 -6,0 -12,6 -12,12 0,0 0,12 0,12 0,6 6,12 12,12 0,0 118,0 118,0 6,0 12,-6 12,-12 0,0 0,-12 0,-12 0,-6 -6,-12 -12,-12"
         id="path98"
         inkscape:connector-curvature="0"
         style="fill:#ff7f50;stroke:#000000" />
      <text
         x="654.5"
         y="-246.3"
         font-size="14.00"
         id="text100"
         style="font-size:14px;font-family:Times, serif;text-anchor:middle">13: onAgeSpanChange</text>
    </g>
    <!-- node5&#45;&gt;node19 -->
    <g
       id="edge2"
       class="edge">
      <title
         id="title103">node5-&gt;node19</title>
      <path
         d="m 654.5,-231.697 c 0,7.714 0,16.985 0,25.585"
         id="path105"
         inkscape:connector-curvature="0"
         style="fill:none;stroke:#000000" />
      <polygon
         points="658,-206.104 658,-206.104 654.5,-196.104 651,-206.104 "
         id="polygon107"
         style="fill:#000000;stroke:#000000" />
    </g>
    <!-- node7 -->
    <g
       id="node5"
       class="node">
      <title
         id="title110">node7</title>
      <path
         d="m 686,-52 c 0,0 -63,0 -63,0 -6,0 -12,6 -12,12 0,0 0,12 0,12 0,6 6,12 12,12 0,0 63,0 63,0 6,0 12,-6 12,-12 0,0 0,-12 0,-12 0,-6 -6,-12 -12,-12"
         id="path112"
         inkscape:connector-curvature="0"
         style="fill:#008000;stroke:#000000" />
      <text
         x="654.5"
         y="-30.299999"
         font-size="14.00"
         id="text114"
         style="font-size:14px;font-family:Times, serif;text-anchor:middle">20: popRatio</text>
    </g>
    <!-- node9 -->
    <g
       id="node6"
       class="node">
      <title
         id="title117">node9</title>
      <path
         d="m 852.5,-52 c 0,0 -100,0 -100,0 -6,0 -12,6 -12,12 0,0 0,12 0,12 0,6 6,12 12,12 0,0 100,0 100,0 6,0 12,-6 12,-12 0,0 0,-12 0,-12 0,-6 -6,-12 -12,-12"
         id="path119"
         inkscape:connector-curvature="0"
         style="fill:#008000;stroke:#000000" />
      <text
         x="802.5"
         y="-30.299999"
         font-size="14.00"
         id="text121"
         style="font-size:14px;font-family:Times, serif;text-anchor:middle">32: maleBinomialZ</text>
    </g>
    <!-- node11 -->
    <g
       id="node7"
       class="node">
      <title
         id="title124">node11</title>
      <path
         d="m 563,-124 c 0,0 -101,0 -101,0 -6,0 -12,6 -12,12 0,0 0,12 0,12 0,6 6,12 12,12 0,0 101,0 101,0 6,0 12,-6 12,-12 0,0 0,-12 0,-12 0,-6 -6,-12 -12,-12"
         id="path126"
         inkscape:connector-curvature="0"
         style="fill:none;stroke:#000000" />
      <text
         x="512.5"
         y="-102.3"
         font-size="14.00"
         id="text128"
         style="font-size:14px;font-family:Times, serif;text-anchor:middle">46: refreshBarChart</text>
    </g>
    <!-- node11&#45;&gt;node7 -->
    <g
       id="edge3"
       class="edge">
      <title
         id="title131">node11-&gt;node7</title>
      <path
         d="m 547.237,-87.8761 c 19.082,9.4068 42.942,21.1684 63.31,31.2089"
         id="path133"
         inkscape:connector-curvature="0"
         style="fill:none;stroke:#0000ff;stroke-width:2" />
      <polygon
         points="612.208,-59.7506 612.208,-59.7506 619.629,-52.1898 609.112,-53.472 "
         id="polygon135"
         style="fill:#0000ff;stroke:#0000ff;stroke-width:2" />
    </g>
    <!-- node13 -->
    <g
       id="node8"
       class="node">
      <title
         id="title138">node13</title>
      <path
         d="m 859,-124 c 0,0 -113,0 -113,0 -6,0 -12,6 -12,12 0,0 0,12 0,12 0,6 6,12 12,12 0,0 113,0 113,0 6,0 12,-6 12,-12 0,0 0,-12 0,-12 0,-6 -6,-12 -12,-12"
         id="path140"
         inkscape:connector-curvature="0"
         style="fill:none;stroke:#000000" />
      <text
         x="802.5"
         y="-102.3"
         font-size="14.00"
         id="text142"
         style="font-size:14px;font-family:Times, serif;text-anchor:middle">59: refreshGenderPlot</text>
    </g>
    <!-- node13&#45;&gt;node7 -->
    <g
       id="edge4"
       class="edge">
      <title
         id="title145">node13-&gt;node7</title>
      <path
         d="m 766.295,-87.8761 c -20.053,9.4844 -45.167,21.3627 -66.509,31.4571"
         id="path147"
         inkscape:connector-curvature="0"
         style="fill:none;stroke:#0000ff;stroke-width:2" />
      <polygon
         points="701.124,-53.18 701.124,-53.18 690.587,-52.0683 698.131,-59.5079 "
         id="polygon149"
         style="fill:#0000ff;stroke:#0000ff;stroke-width:2" />
    </g>
    <!-- node13&#45;&gt;node9 -->
    <g
       id="edge5"
       class="edge">
      <title
         id="title152">node13-&gt;node9</title>
      <path
         d="m 802.5,-87.6966 c 0,7.7139 0,16.9841 0,25.5842"
         id="path154"
         inkscape:connector-curvature="0"
         style="fill:none;stroke:#0000ff;stroke-width:2" />
      <polygon
         points="806,-62.1043 806,-62.1043 802.5,-52.1043 799,-62.1044 "
         id="polygon156"
         style="fill:#0000ff;stroke:#0000ff;stroke-width:2" />
    </g>
    <!-- node17 -->
    <g
       id="node9"
       class="node">
      <title
         id="title159">node17</title>
      <path
         d="m 703.5,-124 c 0,0 -98,0 -98,0 -6,0 -12,6 -12,12 0,0 0,12 0,12 0,6 6,12 12,12 0,0 98,0 98,0 6,0 12,-6 12,-12 0,0 0,-12 0,-12 0,-6 -6,-12 -12,-12"
         id="path161"
         inkscape:connector-curvature="0"
         style="fill:none;stroke:#000000" />
      <text
         x="654.5"
         y="-102.3"
         font-size="14.00"
         id="text163"
         style="font-size:14px;font-family:Times, serif;text-anchor:middle">95: refreshPopMap</text>
    </g>
    <!-- node17&#45;&gt;node7 -->
    <g
       id="edge6"
       class="edge">
      <title
         id="title166">node17-&gt;node7</title>
      <path
         d="m 654.5,-87.6966 c 0,7.7139 0,16.9841 0,25.5842"
         id="path168"
         inkscape:connector-curvature="0"
         style="fill:none;stroke:#0000ff;stroke-width:2" />
      <polygon
         points="658,-62.1043 658,-62.1043 654.5,-52.1043 651,-62.1044 "
         id="polygon170"
         style="fill:#0000ff;stroke:#0000ff;stroke-width:2" />
    </g>
    <!-- node19&#45;&gt;node11 -->
    <g
       id="edge7"
       class="edge">
      <title
         id="title173">node19-&gt;node11</title>
      <path
         d="m 619.763,-159.876 c -19.082,9.407 -42.942,21.168 -63.31,31.209"
         id="path175"
         inkscape:connector-curvature="0"
         style="fill:none;stroke:#0000ff;stroke-width:2" />
      <polygon
         points="557.888,-125.472 557.888,-125.472 547.371,-124.19 554.792,-131.751 "
         id="polygon177"
         style="fill:#0000ff;stroke:#0000ff;stroke-width:2" />
    </g>
    <!-- node19&#45;&gt;node13 -->
    <g
       id="edge8"
       class="edge">
      <title
         id="title180">node19-&gt;node13</title>
      <path
         d="m 690.705,-159.876 c 20.053,9.484 45.167,21.363 66.509,31.457"
         id="path182"
         inkscape:connector-curvature="0"
         style="fill:none;stroke:#0000ff;stroke-width:2" />
      <polygon
         points="758.869,-131.508 758.869,-131.508 766.413,-124.068 755.876,-125.18 "
         id="polygon184"
         style="fill:#0000ff;stroke:#0000ff;stroke-width:2" />
    </g>
    <!-- node19&#45;&gt;node17 -->
    <g
       id="edge9"
       class="edge">
      <title
         id="title187">node19-&gt;node17</title>
      <path
         d="m 654.5,-159.697 c 0,7.714 0,16.985 0,25.585"
         id="path189"
         inkscape:connector-curvature="0"
         style="fill:none;stroke:#0000ff;stroke-width:2" />
      <polygon
         points="658,-134.104 658,-134.104 654.5,-124.104 651,-134.104 "
         id="polygon191"
         style="fill:#0000ff;stroke:#0000ff;stroke-width:2" />
    </g>
    <!-- node21 -->
    <g
       id="node11"
       class="node">
      <title
         id="title194">node21</title>
      <path
         d="m 375.5,-268 c 0,0 -80,0 -80,0 -6,0 -12,6 -12,12 0,0 0,12 0,12 0,6 6,12 12,12 0,0 80,0 80,0 6,0 12,-6 12,-12 0,0 0,-12 0,-12 0,-6 -6,-12 -12,-12"
         id="path196"
         inkscape:connector-curvature="0"
         style="fill:#008000;stroke:#000000" />
      <text
         x="335.5"
         y="-246.3"
         font-size="14.00"
         id="text198"
         style="font-size:14px;font-family:Times, serif;text-anchor:middle">145: createAxes</text>
    </g>
    <!-- node23 -->
    <g
       id="node12"
       class="node">
      <title
         id="title201">node23</title>
      <path
         d="m 535,-196 c 0,0 -99,0 -99,0 -6,0 -12,6 -12,12 0,0 0,12 0,12 0,6 6,12 12,12 0,0 99,0 99,0 6,0 12,-6 12,-12 0,0 0,-12 0,-12 0,-6 -6,-12 -12,-12"
         id="path203"
         inkscape:connector-curvature="0"
         style="fill:#008000;stroke:#000000" />
      <text
         x="485.5"
         y="-174.3"
         font-size="14.00"
         id="text205"
         style="font-size:14px;font-family:Times, serif;text-anchor:middle">157: rebuildLegend</text>
    </g>
    <!-- node38 -->
    <g
       id="node13"
       class="node">
      <title
         id="title208">node38</title>
      <path
         d="m 553,-268 c 0,0 -135,0 -135,0 -6,0 -12,6 -12,12 0,0 0,12 0,12 0,6 6,12 12,12 0,0 135,0 135,0 6,0 12,-6 12,-12 0,0 0,-12 0,-12 0,-6 -6,-12 -12,-12"
         id="path210"
         inkscape:connector-curvature="0"
         style="fill:none;stroke:#000000" />
      <text
         x="485.5"
         y="-246.3"
         font-size="14.00"
         id="text212"
         style="font-size:14px;font-family:Times, serif;text-anchor:middle">176: prepareTargetRegion</text>
    </g>
    <!-- node38&#45;&gt;node19 -->
    <g
       id="edge10"
       class="edge">
      <title
         id="title215">node38-&gt;node19</title>
      <path
         d="m 526.842,-231.876 c 23.206,9.612 52.348,21.683 76.928,31.863"
         id="path217"
         inkscape:connector-curvature="0"
         style="fill:none;stroke:#000000" />
      <polygon
         points="605.393,-203.129 605.393,-203.129 613.292,-196.068 602.714,-196.662 "
         id="polygon219"
         style="fill:#000000;stroke:#000000" />
    </g>
    <!-- node38&#45;&gt;node23 -->
    <g
       id="edge11"
       class="edge">
      <title
         id="title222">node38-&gt;node23</title>
      <path
         d="m 485.5,-231.697 c 0,7.714 0,16.985 0,25.585"
         id="path224"
         inkscape:connector-curvature="0"
         style="fill:none;stroke:#000000" />
      <polygon
         points="489,-206.104 489,-206.104 485.5,-196.104 482,-206.104 "
         id="polygon226"
         style="fill:#000000;stroke:#000000" />
    </g>
    <!-- node50 -->
    <g
       id="node14"
       class="node">
      <title
         id="title229">node50</title>
      <path
         d="m 415.5,-386 c 0,0 -38,0 -38,0 -6,0 -12,6 -12,12 0,0 0,12 0,12 0,6 6,12 12,12 0,0 38,0 38,0 6,0 12,-6 12,-12 0,0 0,-12 0,-12 0,-6 -6,-12 -12,-12"
         id="path231"
         inkscape:connector-curvature="0"
         style="fill:#ff7f50;stroke:#000000" />
      <text
         x="396.5"
         y="-364.29999"
         font-size="14.00"
         id="text233"
         style="font-size:14px;font-family:Times, serif;text-anchor:middle">294: init</text>
    </g>
    <!-- node50&#45;&gt;node21 -->
    <g
       id="edge12"
       class="edge">
      <title
         id="title236">node50-&gt;node21</title>
      <path
         d="m 387.499,-349.884 c -10.091,19.19 -26.571,50.53 -38.272,72.78"
         id="path238"
         inkscape:connector-curvature="0"
         style="fill:none;stroke:#000000" />
      <polygon
         points="352.29,-275.408 352.29,-275.408 344.538,-268.186 346.094,-278.666 "
         id="polygon240"
         style="fill:#000000;stroke:#000000" />
    </g>
    <!-- node50&#45;&gt;node38 -->
    <g
       id="edge13"
       class="edge">
      <title
         id="title243">node50-&gt;node38</title>
      <path
         d="m 409.632,-349.884 c 14.921,19.447 39.415,51.372 56.522,73.669"
         id="path245"
         inkscape:connector-curvature="0"
         style="fill:none;stroke:#0000ff;stroke-width:2" />
      <polygon
         points="469.003,-278.251 469.003,-278.251 472.314,-268.186 463.45,-273.99 "
         id="polygon247"
         style="fill:#0000ff;stroke:#0000ff;stroke-width:2" />
    </g>
  </g>
</svg>
